<svg id="Camada_1" data-name="Camada 1" xmlns="http://www.w3.org/2000/svg" viewBox="0 0 600 500"><defs><style>.cls-1{fill:#a2c050;}</style></defs><title>bkg1</title><g id="_1YmpZB.tif" data-name="1YmpZB.tif"><path class="cls-1" d="M78.22,390.1a29.23,29.23,0,0,1,3.06-4.43q61.48-61.6,123-123.12,83.15-83.22,166.27-166.46c4.33-4.34,3.33-5.31,8.91,0,3.85,3.67,7.54,7.5,11.62,11.59-1.08,1.22-2,2.32-2.95,3.31Q242.33,256.86,96.46,402.7c-.94.94-2,1.79-3,2.68Z"/><path class="cls-1" d="M375.95,408.22c-7.55,5.67-15,11.52-22.7,16.93a111.36,111.36,0,0,1-17.55,9.92l85.22-85.22.79.52c-4.38,6.9-8.53,14-13.19,20.66-4.55,6.54-9.61,12.73-14.45,19.07Z"/><path class="cls-1" d="M96.33,92.38c5.25-4.07,10.48-8.14,15.75-12.19a13.24,13.24,0,0,1,4.22-2.3L63.66,130.53l-.54-.4,15.1-19.64Z"/><path class="cls-1" d="M396.74,113.82c4.2,5.58,8.31,10.8,12.06,16.28.53.78-.26,3.19-1.17,4.13q-16.2,16.62-32.64,33Q265.94,276.31,156.88,385.38c-11.5,11.51-22.78,23.24-34.16,34.86-1.39,1.42-2.81,2.82-4.59,4.59L99.67,410.89Z"/><path class="cls-1" d="M349.26,72.49l18.28,13.1L71.4,381.73c-4-5.72-7.94-11.21-11.7-16.81-.4-.59-.05-1.92.33-2.72a8.8,8.8,0,0,1,1.91-2L346.14,75.61Z"/><path class="cls-1" d="M40.29,328.49c-2.63-8.32-5.11-15.75-7.23-23.28-.31-1.09.75-3,1.72-4q27.62-27.82,55.4-55.49c29.43-29.22,59-58.29,88.4-87.54q42.95-42.75,85.62-85.77c7.62-7.66,15-15.52,22.4-23.4,1.77-1.89,3.37-2.52,5.91-1.64,7,2.43,14.09,4.62,21.76,7.1Z"/><path class="cls-1" d="M125.1,429.33,415.22,139.22c3.29,6.08,6.5,11.82,9.45,17.7.38.75-.35,2.5-1.09,3.3-4.17,4.49-8.46,8.89-12.79,13.23Q279.51,304.75,148.3,436.11c-3,3-5.23,3.58-8.78,1.33C135,434.59,130.26,432.2,125.1,429.33Z"/><path class="cls-1" d="M154.13,444.37,430.31,168.19c2.62,7.6,5.15,14.57,7.29,21.66.29,1-1.18,2.77-2.21,3.8q-42.78,43-85.65,85.82-84.53,84.66-169,169.39c-2.76,2.78-5.06,3.53-8.67,2C166.34,448.56,160.42,446.64,154.13,444.37Z"/><path class="cls-1" d="M53.58,355.55c-3-6-5.88-11.26-8.29-16.72-.45-1,.44-3.24,1.4-4.22q19.21-19.55,38.64-38.88,117-117,233.91-234c2.58-2.58,4.51-3.33,7.77-1.38,4.54,2.71,9.37,4.94,14.31,7.5Z"/><path class="cls-1" d="M281,44.23l-251,251c-1.27-9.62-2.51-18.26-3.42-26.93-.11-1.07,1.36-2.48,2.35-3.47q62.37-62.39,124.79-124.75,48.19-48.29,96.11-96.83c2-2,3.78-3,6.61-2.52C264.27,42,272.16,43,281,44.23Z"/><path class="cls-1" d="M186.57,455.12,441,200.65c1.38,8.11,2.8,15.5,3.76,23,.16,1.25-1.46,3-2.61,4.13q-71.7,71.73-143.47,143.4Q256.29,413.57,214,456.18c-2.31,2.33-4.45,3.28-7.71,2.58C200,457.4,193.61,456.39,186.57,455.12Z"/><path class="cls-1" d="M222.94,460,446.41,236.5c.07,7.19.29,13.38.16,19.57-.26,13.13-.33,13.13-9.65,22.44L271.11,444.23c-4.53,4.52-9,9.08-13.68,13.47-1.18,1.11-2.87,2.29-4.36,2.34-9.45.32-18.91.35-28.37.44A7.64,7.64,0,0,1,222.94,460Z"/><path class="cls-1" d="M25.27,250.31c.6-8.23,1-16.48,1.94-24.68.19-1.71,1.78-3.48,3.13-4.83q55.12-55.23,110.33-110.36,33.11-33.1,66.28-66.14a12.39,12.39,0,0,1,6.86-3.23c7.46-.83,15-1.08,22.49-1.56l.24,1L26.35,250.68Z"/><path class="cls-1" d="M443.86,285.45c-1.35,6.06-2.83,12.09-4,18.18-2.89,14.71-10.17,26.29-21.17,36.87-35.18,33.82-69.38,68.64-104.07,103a21.15,21.15,0,0,1-8.28,5.18c-10.32,3.14-20.79,5.75-31.22,8.53-1.25.33-2.58.39-4.7.7L443,285.28Z"/><path class="cls-1" d="M190.59,45.1,31,204.68a22.18,22.18,0,0,1,.46-3.61c3.86-11.63,7.66-23.29,11.74-34.84a17.59,17.59,0,0,1,4.22-6.2q49.65-49.67,99.46-99.18a12,12,0,0,1,4.15-3c12.33-4.26,24.73-8.36,37.11-12.49A15.24,15.24,0,0,1,190.59,45.1Z"/></g><g id="_1YmpZB.tif-2" data-name="1YmpZB.tif"><path class="cls-1" d="M550,473.87a8.81,8.81,0,0,1-1.34-.92q-18.56-18.52-37.1-37.07-25.08-25.05-50.16-50.1c-1.31-1.31-1.6-1,0-2.68,1.1-1.16,2.26-2.27,3.49-3.5.37.33.7.59,1,.89l87.9,87.9c.28.28.54.59.81.89Z"/><path class="cls-1" d="M555.44,384.16c1.71,2.28,3.47,4.51,5.1,6.84a33.55,33.55,0,0,1,3,5.29l-25.68-25.68.16-.24c2.08,1.32,4.2,2.57,6.22,4s3.83,2.9,5.75,4.36Z"/><path class="cls-1" d="M460.28,468.41c-1.22-1.58-2.45-3.16-3.67-4.75a4,4,0,0,1-.69-1.27l15.86,15.86-.12.16-5.92-4.55Z"/><path class="cls-1" d="M466.74,377.89c1.68-1.26,3.26-2.5,4.91-3.63.24-.16,1,.08,1.24.35q5,4.88,9.94,9.84,32.87,32.86,65.73,65.72c3.47,3.46,7,6.86,10.51,10.29l1.38,1.38-4.2,5.56Z"/><path class="cls-1" d="M454.28,392.2l3.95-5.51,89.23,89.23c-1.72,1.21-3.38,2.39-5.07,3.53-.18.12-.58,0-.82-.1a2.65,2.65,0,0,1-.61-.57l-85.74-85.64Z"/><path class="cls-1" d="M531.42,485.3c-2.51.79-4.75,1.54-7,2.18a1.6,1.6,0,0,1-1.19-.52q-8.38-8.32-16.72-16.69c-8.8-8.87-17.56-17.78-26.38-26.64q-12.88-12.94-25.84-25.8c-2.31-2.29-4.68-4.53-7.05-6.75a1.48,1.48,0,0,1-.5-1.78c.73-2.11,1.39-4.24,2.14-6.56Z"/><path class="cls-1" d="M561.81,459.74l-87.42-87.42c1.83-1,3.56-2,5.33-2.85.23-.11.75.11,1,.33,1.35,1.26,2.68,2.55,4,3.85q39.56,39.55,79.14,79.09c.91.91,1.08,1.58.4,2.64C563.39,456.75,562.67,458.19,561.81,459.74Z"/><path class="cls-1" d="M566.34,451l-83.22-83.22c2.29-.79,4.39-1.55,6.53-2.2.29-.09.83.36,1.15.67q12.94,12.89,25.86,25.81,25.51,25.47,51,50.92a2.08,2.08,0,0,1,.62,2.61C567.6,447.32,567,449.1,566.34,451Z"/><path class="cls-1" d="M539.57,481.29c-1.81.91-3.39,1.77-5,2.5a1.53,1.53,0,0,1-1.27-.42q-5.89-5.79-11.72-11.64Q486.29,436.48,451,401.24c-.78-.78-1-1.36-.42-2.34.82-1.37,1.49-2.82,2.26-4.31Z"/><path class="cls-1" d="M445.77,412.77l75.63,75.63c-2.9.38-5.5.75-8.11,1-.32,0-.75-.41-1-.71q-18.8-18.79-37.59-37.6-14.55-14.52-29.18-29a2.09,2.09,0,0,1-.76-2C445.08,417.81,445.39,415.43,445.77,412.77Z"/><path class="cls-1" d="M569.58,441.22,492.9,364.54c2.44-.42,4.67-.84,6.92-1.13.38,0,.9.44,1.24.79q21.61,21.6,43.21,43.23,12.79,12.79,25.63,25.52a2.27,2.27,0,0,1,.78,2.32C570.26,437.17,570,439.1,569.58,441.22Z"/><path class="cls-1" d="M571,430.26,503.7,362.93c2.17,0,4-.09,5.9,0,4,.08,4,.1,6.76,2.91l49.93,50c1.36,1.36,2.73,2.72,4.06,4.12a2.33,2.33,0,0,1,.71,1.31c.1,2.85.1,5.7.13,8.55A2.3,2.3,0,0,1,571,430.26Z"/><path class="cls-1" d="M507.86,489.82c-2.48-.18-5-.32-7.44-.58a2.9,2.9,0,0,1-1.46-.94q-16.64-16.61-33.25-33.25-10-10-19.93-20a3.73,3.73,0,0,1-1-2.07c-.25-2.25-.33-4.52-.47-6.78l.29-.07L508,489.5Z"/><path class="cls-1" d="M518.45,363.69c1.83.41,3.64.85,5.48,1.21A20.47,20.47,0,0,1,535,371.29c10.19,10.6,20.68,20.91,31,31.36a6.37,6.37,0,0,1,1.56,2.49c.95,3.11,1.73,6.26,2.57,9.41.1.38.12.78.21,1.42l-52-52Z"/><path class="cls-1" d="M446,440l48.08,48.08A6.68,6.68,0,0,1,493,488c-3.51-1.16-7-2.31-10.5-3.54a5.3,5.3,0,0,1-1.87-1.27q-15-15-29.89-30a3.62,3.62,0,0,1-.91-1.25c-1.28-3.72-2.52-7.45-3.76-11.18A4.59,4.59,0,0,1,446,440Z"/></g><g id="_1YmpZB.tif-3" data-name="1YmpZB.tif"><path class="cls-1" d="M420.15,86.09a6.17,6.17,0,0,1,.65-.94q13-13,26-26L481.87,24c.91-.92.7-1.12,1.88,0,.81.77,1.59,1.58,2.45,2.45-.23.26-.41.49-.62.7L424,88.75c-.2.2-.42.38-.63.57Z"/><path class="cls-1" d="M483,89.91c-1.59,1.2-3.16,2.43-4.79,3.57a23.51,23.51,0,0,1-3.7,2.1l18-18,.17.11c-.92,1.46-1.8,2.95-2.78,4.36s-2,2.69-3.05,4Z"/><path class="cls-1" d="M424,23.24l3.32-2.57a2.79,2.79,0,0,1,.89-.49L417.08,31.29l-.11-.09,3.19-4.15Z"/><path class="cls-1" d="M487.39,27.77c.89,1.18,1.75,2.28,2.55,3.44.11.16-.05.67-.25.87q-3.42,3.51-6.89,7-23,23-46,46.05c-2.43,2.43-4.81,4.91-7.21,7.36l-1,1-3.9-2.94Z"/><path class="cls-1" d="M477.37,19l3.86,2.76L418.71,84.32c-.85-1.21-1.68-2.37-2.47-3.55-.08-.12,0-.4.07-.57a1.86,1.86,0,0,1,.4-.43l60-60.07Z"/><path class="cls-1" d="M412.14,73.09c-.56-1.76-1.08-3.33-1.53-4.92a1.12,1.12,0,0,1,.36-.84q5.83-5.87,11.69-11.71c6.21-6.17,12.46-12.3,18.66-18.48q9.07-9,18.08-18.11c1.61-1.62,3.17-3.28,4.73-4.94a1,1,0,0,1,1.25-.35c1.48.51,3,1,4.59,1.5Z"/><path class="cls-1" d="M430,94.37l61.24-61.24c.69,1.28,1.37,2.5,2,3.74.08.16-.07.53-.23.7-.88.95-1.78,1.88-2.7,2.79Q462.64,68.07,434.94,95.8c-.64.64-1.1.75-1.85.28C432.14,95.48,431.14,95,430,94.37Z"/><path class="cls-1" d="M436.18,97.55l58.3-58.3c.55,1.61,1.09,3.08,1.54,4.57.06.21-.25.58-.47.8q-9,9.07-18.08,18.12Q459.62,80.61,441.79,98.5a1.46,1.46,0,0,1-1.83.43C438.75,98.43,437.5,98,436.18,97.55Z"/><path class="cls-1" d="M414.95,78.8c-.64-1.27-1.24-2.38-1.75-3.53a1.07,1.07,0,0,1,.3-.89q4.05-4.13,8.16-8.21Q446.35,41.47,471,16.76c.54-.55,1-.7,1.64-.29,1,.57,2,1,3,1.58Z"/><path class="cls-1" d="M463,13.08l-53,53c-.27-2-.53-3.85-.72-5.69,0-.23.29-.52.5-.73q13.17-13.17,26.34-26.33,10.17-10.19,20.29-20.44a1.46,1.46,0,0,1,1.39-.53C459.43,12.6,461.09,12.81,463,13.08Z"/><path class="cls-1" d="M443,99.82,496.74,46.1c.29,1.71.59,3.27.79,4.84,0,.26-.31.63-.55.87L466.7,82.08q-9,9-17.88,18a1.59,1.59,0,0,1-1.63.54C445.86,100.3,444.51,100.09,443,99.82Z"/><path class="cls-1" d="M450.7,100.84l47.17-47.17c0,1.52.06,2.83,0,4.13-.06,2.77-.07,2.77-2,4.74l-35,35c-1,1-1.91,1.92-2.89,2.84a1.63,1.63,0,0,1-.92.49c-2,.07-4,.07-6,.09A1.61,1.61,0,0,1,450.7,100.84Z"/><path class="cls-1" d="M409,56.58c.13-1.74.22-3.48.41-5.21a2,2,0,0,1,.66-1q11.64-11.66,23.29-23.3,7-7,14-14a2.62,2.62,0,0,1,1.45-.68c1.58-.17,3.16-.23,4.75-.33l.05.2L409.2,56.66Z"/><path class="cls-1" d="M497.34,64c-.29,1.28-.6,2.55-.85,3.84A14.34,14.34,0,0,1,492,75.62c-7.43,7.14-14.65,14.49-22,21.74a4.46,4.46,0,0,1-1.75,1.09c-2.18.66-4.39,1.21-6.59,1.8-.26.07-.54.08-1,.15L497.15,64Z"/><path class="cls-1" d="M443.87,13.26,410.18,46.95a4.68,4.68,0,0,1,.1-.76c.81-2.46,1.62-4.92,2.48-7.35a3.71,3.71,0,0,1,.89-1.31q10.48-10.48,21-20.94a2.54,2.54,0,0,1,.88-.64c2.6-.9,5.22-1.77,7.83-2.64A3.22,3.22,0,0,1,443.87,13.26Z"/></g></svg>