<?xml version="1.0" encoding="utf-8"?>
<!-- Generator: Adobe Illustrator 21.0.2, SVG Export Plug-In . SVG Version: 6.00 Build 0)  -->
<svg version="1.1" id="Camada_1" xmlns="http://www.w3.org/2000/svg" xmlns:xlink="http://www.w3.org/1999/xlink" x="0px" y="0px"
	 viewBox="0 0 600 500" style="enable-background:new 0 0 600 500;" xml:space="preserve">
<style type="text/css">
	.st0{fill:#A2C050;}
	.st1{fill:#19B5FE;}
</style>
<title>bkg1</title>
<title>bkg1</title>
<rect x="137.3" y="238.3" transform="matrix(-0.7071 -0.7071 0.7071 -0.7071 126.5469 650.3783)" class="st0" width="121.3" height="121.3"/>
<rect x="33" y="134" transform="matrix(-0.7071 -0.7071 0.7071 -0.7071 22.2264 398.5267)" class="st0" width="121.3" height="121.3"/>
<rect x="241.6" y="134" transform="matrix(-0.7071 -0.7071 0.7071 -0.7071 378.3984 546.0579)" class="st0" width="121.3" height="121.3"/>
<rect x="325.2" y="436.9" transform="matrix(-0.7071 -0.7071 0.7071 -0.7071 257.4203 1002.9188)" class="st0" width="22.5" height="22.5"/>
<rect x="344.5" y="417.5" transform="matrix(-0.7071 -0.7071 0.7071 -0.7071 304.1772 983.5515)" class="st0" width="22.5" height="22.5"/>
<rect x="363.9" y="436.9" transform="matrix(-0.7071 -0.7071 0.7071 -0.7071 323.5445 1030.3083)" class="st0" width="22.5" height="22.5"/>
<rect x="432.7" y="57" transform="matrix(0.7071 -0.7071 0.7071 0.7071 77.3363 344.5022)" class="st0" width="43.7" height="43.7"/>
<rect x="432.7" y="132.2" transform="matrix(0.7071 -0.7071 0.7071 0.7071 24.1995 366.5121)" class="st0" width="43.7" height="43.7"/>
<rect x="281.4" y="373.7" transform="matrix(-0.7071 -0.7071 0.7071 -0.7071 243.4362 903.0341)" class="st0" width="54.7" height="54.7"/>
<rect x="375.5" y="373.7" transform="matrix(-0.7071 -0.7071 0.7071 -0.7071 404.0619 969.5674)" class="st0" width="54.7" height="54.7"/>
<rect x="170.6" y="116.1" transform="matrix(-0.7071 -0.7071 0.7071 -0.7071 236.5327 384.8487)" class="st0" width="54.6" height="54.6"/>
<rect x="123.7" y="69.1" transform="matrix(-0.7071 -0.7071 0.7071 -0.7071 189.5531 271.43)" class="st0" width="54.6" height="54.6"/>
<rect x="170.6" y="22.2" transform="matrix(-0.7071 -0.7071 0.7071 -0.7071 302.9719 224.4504)" class="st0" width="54.6" height="54.6"/>
<rect x="217.6" y="69.1" transform="matrix(-0.7071 -0.7071 0.7071 -0.7071 349.9514 337.8691)" class="st0" width="54.6" height="54.6"/>
<rect x="488.8" y="266.2" transform="matrix(-0.7071 -0.7071 0.7071 -0.7071 685.3515 894.7105)" class="st0" width="78.4" height="78.4"/>
<rect x="470.3" y="94.7" transform="matrix(-0.7071 -0.7071 0.7071 -0.7071 757.6967 546.7908)" class="st1" width="43.6" height="43.6"/>
<rect x="344.5" y="455.8" transform="matrix(-0.7071 -0.7071 0.7071 -0.7071 277.1334 1048.8409)" class="st1" width="22.5" height="22.5"/>
</svg>
