<svg id="Camada_1" data-name="Camada 1" xmlns="http://www.w3.org/2000/svg" viewBox="0 0 200 350"><defs><style>.cls-1{fill:#a2c050;}</style></defs><title>bkg2</title><g id="ULkCgG.tif"><path class="cls-1" d="M199.7,232.52c-6.4-6.44-12.5-12.6-18.62-18.73q-24.21-24.24-48.45-48.45L54,86.66Q27.8,60.46,1.61,34.24A4.9,4.9,0,0,1,.08,31.31C0,22.93,0,14.56,0,6.18A13.47,13.47,0,0,1,.31,4.44c1.94,1.85,3.64,3.4,5.26,5q34.65,34.7,69.29,69.41,27.76,27.82,55.53,55.64,26.62,26.62,53.3,53.19c5,5,10,9.93,14.9,15a4.61,4.61,0,0,1,1.35,2.8c.1,8.61.05,17.22,0,25.84A8.68,8.68,0,0,1,199.7,232.52Z"/><path class="cls-1" d="M199.71,349.32c-7.46-7.48-14.51-14.57-21.58-21.65L99.65,249.21,35.13,184.67Q18.29,167.83,1.48,151A4.57,4.57,0,0,1,.07,148.2C0,139.59,0,131,0,122.37a5,5,0,0,1,.24-.94c.61.53,1.13.93,1.59,1.39L61.3,182.25Q90.19,211.13,119.09,240q31.21,31.21,62.39,62.43c5.64,5.65,11.32,11.26,16.91,17a4.94,4.94,0,0,1,1.53,2.93c.12,8.45.07,16.91.06,25.36A13.89,13.89,0,0,1,199.71,349.32Z"/><path class="cls-1" d="M199.33,290.6c-4.1-4.17-8.18-8.36-12.31-12.5q-29.7-29.73-59.42-59.44c-5.08-5.08-10.18-10.12-15.23-15.23-4.64-4.7-9.17-9.5-13.84-14.17-3.69-3.69-7.57-7.18-11.26-10.86-3.9-3.89-7.63-8-11.52-11.84Q53.1,143.94,30.4,121.39,15.78,106.82,1.23,92.18A3.91,3.91,0,0,1,.06,89.8C0,81.19,0,72.58,0,64a4.55,4.55,0,0,1,.26-.91c.6.52,1.13.91,1.6,1.37L104.25,166.78q40.08,40.08,80.18,80.14c4.7,4.7,9.41,9.4,14.08,14.14a4.11,4.11,0,0,1,1.4,2.28c.1,9,.06,18,.06,27Z"/></g></svg>