<svg id="Camada_1" data-name="Camada 1" xmlns="http://www.w3.org/2000/svg" viewBox="0 0 300 350"><defs><style>.cls-1{fill:#a2c050;}.cls-2{fill:#19b5fe;}</style></defs><title>bkg3</title><g id="_1YmpZB.tif" data-name="1YmpZB.tif"><path class="cls-1" d="M61.56,295.89a17.49,17.49,0,0,1,1.83-2.65q36.78-36.85,73.6-73.65,49.74-49.78,99.46-99.57c2.59-2.59,2-3.18,5.33,0,2.3,2.19,4.51,4.49,7,6.93-.65.73-1.17,1.39-1.76,2L72.47,303.43c-.56.56-1.18,1.07-1.77,1.6Z"/><path class="cls-1" d="M239.65,306.72c-4.52,3.39-9,6.89-13.58,10.13a66.61,66.61,0,0,1-10.5,5.94l51-51,.47.31c-2.62,4.13-5.1,8.35-7.89,12.36s-5.75,7.61-8.65,11.41Z"/><path class="cls-1" d="M72.39,117.8c3.14-2.43,6.27-4.87,9.42-7.29a7.92,7.92,0,0,1,2.52-1.38L52.85,140.62l-.32-.24,9-11.75Z"/><path class="cls-1" d="M252.09,130.62c2.51,3.34,5,6.46,7.21,9.74.32.47-.15,1.91-.7,2.47q-9.69,9.94-19.52,19.74-65.23,65.25-130.47,130.49C101.73,300,95,307,88.17,313.92c-.83.85-1.68,1.68-2.74,2.75l-11-8.34Z"/><path class="cls-1" d="M223.68,105.9l10.93,7.83L57.47,290.88c-2.4-3.42-4.75-6.71-7-10.06-.24-.35,0-1.15.2-1.62A5.27,5.27,0,0,1,51.81,278l170-170.22Z"/><path class="cls-1" d="M38.86,259c-1.58-5-3.06-9.42-4.33-13.93a3.17,3.17,0,0,1,1-2.37q16.52-16.64,33.14-33.19c17.6-17.48,35.3-34.87,52.88-52.37q25.69-25.57,51.22-51.3c4.56-4.58,9-9.28,13.4-14a2.93,2.93,0,0,1,3.54-1c4.19,1.45,8.43,2.76,13,4.25Z"/><path class="cls-1" d="M89.6,319.36,263.14,145.81c2,3.63,3.89,7.07,5.65,10.59.23.45-.21,1.5-.65,2-2.5,2.69-5.06,5.32-7.65,7.91q-78.52,78.54-157,157.12c-1.8,1.8-3.13,2.14-5.25.79C95.54,322.5,92.69,321.07,89.6,319.36Z"/><path class="cls-1" d="M107,328.35l165.2-165.2c1.56,4.55,3.08,8.72,4.36,13,.18.58-.7,1.65-1.32,2.27Q249.62,204.07,224,229.71,173.41,280.35,122.88,331c-1.65,1.66-3,2.11-5.19,1.22C114.26,330.86,110.73,329.71,107,328.35Z"/><path class="cls-1" d="M46.82,275.22c-1.81-3.58-3.52-6.74-5-10a3,3,0,0,1,.84-2.52Q54.19,251,65.81,239.43q70-70,139.92-140c1.54-1.55,2.7-2,4.65-.83,2.72,1.62,5.61,3,8.56,4.49Z"/><path class="cls-1" d="M182.84,89,32.7,239.13c-.76-5.75-1.5-10.92-2-16.11-.07-.64.81-1.48,1.41-2.08q37.31-37.32,74.65-74.62,28.82-28.88,57.49-57.92a4.15,4.15,0,0,1,4-1.51C172.85,87.63,177.56,88.25,182.84,89Z"/><path class="cls-1" d="M126.37,334.78,278.58,182.56c.83,4.85,1.68,9.27,2.25,13.73.1.75-.87,1.78-1.56,2.47q-42.89,42.91-85.82,85.78-25.38,25.39-50.66,50.88a4.5,4.5,0,0,1-4.61,1.54C134.4,336.14,130.58,335.54,126.37,334.78Z"/><path class="cls-1" d="M148.13,337.68,281.8,204c0,4.3.17,8,.1,11.7-.16,7.85-.2,7.85-5.77,13.42l-99.18,99.13c-2.71,2.71-5.4,5.43-8.19,8.06a4.63,4.63,0,0,1-2.61,1.4c-5.65.19-11.31.21-17,.26A4.57,4.57,0,0,1,148.13,337.68Z"/><path class="cls-1" d="M29.88,212.27c.36-4.92.63-9.86,1.16-14.76a5.76,5.76,0,0,1,1.87-2.89q33-33,66-66,19.8-19.8,39.65-39.56a7.41,7.41,0,0,1,4.1-1.93c4.46-.5,9-.65,13.45-.93l.14.58L30.53,212.49Z"/><path class="cls-1" d="M280.27,233.29c-.81,3.62-1.7,7.23-2.41,10.88-1.73,8.8-6.08,15.72-12.67,22.05-21,20.23-41.5,41.06-62.25,61.59a12.65,12.65,0,0,1-5,3.1c-6.17,1.88-12.44,3.44-18.67,5.1-.75.2-1.54.23-2.81.42L279.74,233.18Z"/><path class="cls-1" d="M128.77,89.52,33.32,185a13.27,13.27,0,0,1,.27-2.16c2.31-7,4.58-13.93,7-20.84a10.52,10.52,0,0,1,2.52-3.71q29.7-29.71,59.49-59.33a7.19,7.19,0,0,1,2.48-1.81c7.38-2.55,14.79-5,22.2-7.47A9.11,9.11,0,0,1,128.77,89.52Z"/></g><g id="_1YmpZB.tif-2" data-name="1YmpZB.tif"><path class="cls-2" d="M54.31,338.27a2.87,2.87,0,0,1-.43-.3L41.79,325.89,25.45,309.57c-.43-.43-.52-.33,0-.87.36-.38.74-.74,1.14-1.14.12.11.23.19.32.29l28.63,28.63.26.29Z"/><path class="cls-2" d="M56.08,309c.56.74,1.13,1.47,1.66,2.23a10.93,10.93,0,0,1,1,1.72l-8.36-8.36.05-.08c.68.43,1.37.84,2,1.29s1.25.94,1.87,1.42Z"/><path class="cls-2" d="M25.08,336.49l-1.2-1.55a1.3,1.3,0,0,1-.23-.41l5.17,5.17,0,.05-1.93-1.48Z"/><path class="cls-2" d="M27.19,307c.55-.41,1.06-.82,1.6-1.18.08-.05.31,0,.41.11q1.63,1.59,3.24,3.2l21.41,21.41c1.13,1.13,2.28,2.24,3.42,3.35l.45.45-1.37,1.81Z"/><path class="cls-2" d="M23.13,311.67l1.29-1.79,29.07,29.07c-.56.39-1.1.78-1.65,1.15-.06,0-.19,0-.27,0a.86.86,0,0,1-.2-.19L23.44,312Z"/><path class="cls-2" d="M48.26,342c-.82.26-1.55.5-2.29.71a.52.52,0,0,1-.39-.17q-2.73-2.71-5.45-5.44c-2.87-2.89-5.72-5.79-8.59-8.68s-5.61-5.61-8.42-8.4c-.75-.75-1.52-1.47-2.3-2.2a.48.48,0,0,1-.16-.58c.24-.69.45-1.38.7-2.14Z"/><path class="cls-2" d="M58.16,333.67,29.68,305.19c.6-.32,1.16-.64,1.74-.93.07,0,.25,0,.32.11.44.41.87.83,1.3,1.26q12.89,12.88,25.78,25.76c.3.3.35.51.13.86S58.44,333.16,58.16,333.67Z"/><path class="cls-2" d="M59.63,330.82,32.53,303.71c.75-.26,1.43-.51,2.13-.72.1,0,.27.12.37.22l8.42,8.41q8.31,8.3,16.63,16.59a.68.68,0,0,1,.2.85C60,329.62,59.86,330.2,59.63,330.82Z"/><path class="cls-2" d="M50.92,340.69c-.59.3-1.11.58-1.64.81a.5.5,0,0,1-.41-.14q-1.92-1.89-3.82-3.79-11.48-11.48-23-23c-.25-.25-.33-.44-.14-.76s.49-.92.74-1.4Z"/><path class="cls-2" d="M20.36,318.37,45,343c-.94.12-1.79.25-2.64.34-.11,0-.24-.13-.34-.23L29.76,330.86q-4.74-4.73-9.5-9.43a.68.68,0,0,1-.25-.65C20.13,320,20.24,319.23,20.36,318.37Z"/><path class="cls-2" d="M60.69,327.63l-25-25c.8-.14,1.52-.27,2.25-.37.12,0,.29.14.4.26l14.08,14.08q4.17,4.16,8.35,8.31a.74.74,0,0,1,.25.76C60.91,326.32,60.81,326.94,60.69,327.63Z"/><path class="cls-2" d="M61.16,324.06,39.23,302.13c.71,0,1.31,0,1.92,0,1.29,0,1.29,0,2.2.95l16.27,16.27c.44.44.89.89,1.32,1.34a.76.76,0,0,1,.23.43c0,.93,0,1.86,0,2.78A.75.75,0,0,1,61.16,324.06Z"/><path class="cls-2" d="M40.59,343.47c-.81-.06-1.62-.1-2.42-.19a1,1,0,0,1-.47-.31L26.86,332.14q-3.25-3.25-6.49-6.51A1.22,1.22,0,0,1,20,325c-.08-.73-.11-1.47-.15-2.21l.1,0,20.63,20.63Z"/><path class="cls-2" d="M44,302.38c.59.13,1.19.28,1.78.4a6.67,6.67,0,0,1,3.62,2.08c3.32,3.45,6.74,6.81,10.11,10.22a2.08,2.08,0,0,1,.51.81c.31,1,.56,2,.84,3.06,0,.12,0,.25.07.46L44,302.47Z"/><path class="cls-2" d="M20.44,327.24,36.11,342.9a2.18,2.18,0,0,1-.35,0c-1.14-.38-2.29-.75-3.42-1.15a1.73,1.73,0,0,1-.61-.41L22,331.53a1.18,1.18,0,0,1-.3-.41c-.42-1.21-.82-2.43-1.23-3.64A1.5,1.5,0,0,1,20.44,327.24Z"/></g><g id="_1YmpZB.tif-3" data-name="1YmpZB.tif"><path class="cls-1" d="M64.33,70a5.33,5.33,0,0,1,.56-.81L87.31,46.71l30.3-30.33c.79-.79.61-1,1.62,0,.7.67,1.37,1.37,2.12,2.11-.2.22-.36.42-.54.6L67.65,72.25c-.17.17-.36.33-.54.49Z"/><path class="cls-1" d="M118.58,73.26c-1.38,1-2.73,2.1-4.14,3.09a20.29,20.29,0,0,1-3.2,1.81l15.53-15.53.14.1c-.8,1.26-1.55,2.54-2.4,3.76s-1.75,2.32-2.63,3.47Z"/><path class="cls-1" d="M67.63,15.7l2.87-2.22a2.41,2.41,0,0,1,.77-.42l-9.59,9.59-.1-.07L64.33,19Z"/><path class="cls-1" d="M122.37,19.61c.76,1,1.51,2,2.2,3,.1.14,0,.58-.21.75q-3,3-5.95,6L78.66,69.09c-2.1,2.1-4.15,4.24-6.23,6.35l-.84.84-3.36-2.54Z"/><path class="cls-1" d="M113.72,12.08,117,14.46l-54,54c-.73-1-1.45-2-2.13-3.06-.07-.11,0-.35.06-.49a1.6,1.6,0,0,1,.35-.37l51.79-51.86Z"/><path class="cls-1" d="M57.41,58.73c-.48-1.52-.93-2.87-1.32-4.24a1,1,0,0,1,.31-.72q5-5.07,10.1-10.11c5.36-5.32,10.75-10.62,16.11-16S93,17.29,98.22,12.07c1.39-1.4,2.74-2.83,4.08-4.26a.89.89,0,0,1,1.08-.3c1.28.44,2.57.84,4,1.29Z"/><path class="cls-1" d="M72.87,77.1l52.87-52.87c.6,1.11,1.19,2.15,1.72,3.23.07.14-.06.46-.2.6-.76.82-1.54,1.62-2.33,2.41Q101,54.4,77.1,78.34c-.55.55-1,.65-1.6.24C74.68,78.06,73.81,77.63,72.87,77.1Z"/><path class="cls-1" d="M78.16,79.84l50.33-50.33c.48,1.39.94,2.66,1.33,3.95.05.18-.21.5-.4.69Q121.62,42,113.81,49.8,98.4,65.22,83,80.66a1.26,1.26,0,0,1-1.58.37C80.38,80.61,79.31,80.26,78.16,79.84Z"/><path class="cls-1" d="M59.84,63.66c-.55-1.09-1.07-2.05-1.51-3a.93.93,0,0,1,.26-.77q3.5-3.56,7-7.09,21.32-21.32,42.62-42.65c.47-.47.82-.61,1.42-.25.83.49,1.71.9,2.61,1.37Z"/><path class="cls-1" d="M101.27,6.93,55.54,52.66c-.23-1.75-.46-3.33-.62-4.91,0-.2.25-.45.43-.63Q66.71,35.75,78.08,24.39q8.78-8.8,17.51-17.65a1.26,1.26,0,0,1,1.2-.46C98.23,6.51,99.67,6.7,101.27,6.93Z"/><path class="cls-1" d="M84.07,81.8l46.37-46.37c.25,1.48.51,2.82.68,4.18,0,.23-.27.54-.48.75L104.51,66.5Q96.78,74.23,89.08,82a1.37,1.37,0,0,1-1.4.47C86.52,82.22,85.35,82,84.07,81.8Z"/><path class="cls-1" d="M90.7,82.69,131.42,42c0,1.31.05,2.44,0,3.57,0,2.39-.06,2.39-1.76,4.09L99.48,79.82c-.82.82-1.65,1.65-2.49,2.45a1.41,1.41,0,0,1-.79.43c-1.72.06-3.45.06-5.17.08A1.39,1.39,0,0,1,90.7,82.69Z"/><path class="cls-1" d="M54.68,44.48c.11-1.5.19-3,.35-4.5a1.75,1.75,0,0,1,.57-.88Q65.65,29,75.71,19q6-6,12.08-12.05A2.26,2.26,0,0,1,89,6.35c1.36-.15,2.73-.2,4.1-.28l0,.18-38.3,38.3Z"/><path class="cls-1" d="M131,50.88c-.25,1.1-.52,2.2-.73,3.31a12.38,12.38,0,0,1-3.86,6.72c-6.41,6.16-12.64,12.51-19,18.76a3.85,3.85,0,0,1-1.51.94c-1.88.57-3.79,1-5.69,1.55-.23.06-.47.07-.86.13L130.8,50.85Z"/><path class="cls-1" d="M84.8,7.09,55.73,36.17a4,4,0,0,1,.08-.66c.7-2.12,1.4-4.24,2.14-6.35A3.2,3.2,0,0,1,58.72,28Q67.77,19,76.84,10a2.19,2.19,0,0,1,.76-.55c2.25-.78,4.51-1.52,6.76-2.28A2.78,2.78,0,0,1,84.8,7.09Z"/></g></svg>