<svg id="Camada_1" data-name="Camada 1" xmlns="http://www.w3.org/2000/svg" viewBox="0 0 30 30"><defs><style>.cls-1{fill:#19b5fe;stroke:#19b5fe;stroke-miterlimit:10;}.cls-2{fill:#fff;}</style></defs><title>icon1</title><circle class="cls-1" cx="15" cy="15" r="14.28"/><path class="cls-2" d="M4.74,17.37,7.37,14c.25-.31.49-.59.75-.9v0H5v-.85H9.41v.66L6.81,16.21c-.24.32-.48.61-.74.91v0H9.46V18H4.74Z"/><path class="cls-2" d="M11,15.27a1.86,1.86,0,0,0,2,2,3.82,3.82,0,0,0,1.61-.3l.18.76a4.7,4.7,0,0,1-1.93.36A2.7,2.7,0,0,1,10,15.18c0-1.75,1-3.13,2.72-3.13a2.46,2.46,0,0,1,2.4,2.73,4,4,0,0,1,0,.49Zm3.09-.76a1.5,1.5,0,0,0-1.46-1.71,1.75,1.75,0,0,0-1.62,1.71Z"/><path class="cls-2" d="M16.47,14c0-.68,0-1.27,0-1.81h.92l0,1.14h0A1.74,1.74,0,0,1,19,12a1.14,1.14,0,0,1,.3,0v1A1.59,1.59,0,0,0,19,13a1.48,1.48,0,0,0-1.42,1.36,3,3,0,0,0,0,.49V18h-1Z"/><path class="cls-2" d="M25.53,15a2.84,2.84,0,0,1-2.89,3.08,2.76,2.76,0,0,1-2.78-3A2.83,2.83,0,0,1,22.73,12,2.75,2.75,0,0,1,25.53,15Zm-4.61.06c0,1.27.73,2.23,1.76,2.23s1.76-.95,1.76-2.25c0-1-.49-2.23-1.74-2.23S20.92,14,20.92,15.09Z"/></svg>