<svg id="Layer_1" data-name="Layer 1" xmlns="http://www.w3.org/2000/svg" viewBox="0 0 3004.73 3004.72"><defs><style>.cls-1,.cls-10,.cls-4{fill:none;}.cls-1,.cls-3,.cls-4,.cls-9{stroke:#fff;stroke-miterlimit:10;}.cls-1{stroke-width:5px;}.cls-2,.cls-3,.cls-6{fill:#fff;}.cls-3{stroke-width:0.5px;}.cls-4{stroke-width:1.5px;}.cls-5{font-size:504.85px;fill:#a7c94c;font-family:Copperplate, Copperplate;}.cls-6{font-size:235.59px;font-family:Calibri-Bold, Calibri Bold;font-weight:700;}.cls-7{letter-spacing:0em;}.cls-8{letter-spacing:0em;}.cls-9{fill:#a8c94c;stroke-width:10px;}</style></defs><title>logo-1</title><line class="cls-1" x1="1001.37" y1="740.51" x2="1001.37" y2="1130.5"/><path class="cls-2" d="M1001.37,298.55c9.54,0,23.86,381.61,23.86,381.61H977.52S991.83,298.55,1001.37,298.55Z"/><path class="cls-2" d="M650.21,906.75c-4.77-8.27,318.57-211.47,318.57-211.47l23.85,41.31S655,915,650.21,906.75Z"/><path class="cls-2" d="M1352.53,906.76c-4.78,8.25-342.43-170.16-342.43-170.16L1034,695.29S1357.3,898.49,1352.53,906.76Z"/><circle class="cls-3" cx="1001.37" cy="704.02" r="23.85"/><path class="cls-2" d="M2919.92,1545.21S2045.76,1909.76,1261.66,1990C490.2,2069,86,1893,85.27,1656.54c-.88-289,746.12-626.49,746.12-626.49S233,1459.45,293.39,1657c78.15,255.78,808,222.29,1050.23,203.63C2245.37,1791.12,2919.92,1545.21,2919.92,1545.21Z"/><line class="cls-4" x1="797.74" y1="1173.51" x2="2028.93" y2="1142.57"/><text class="cls-5" transform="translate(139.53 2380.34) scale(0.81 1)">OBH ENERGY</text><text class="cls-6" transform="translate(627.6 2634.05)">Clean <tspan class="cls-7" x="604.52" y="0">R</tspan><tspan x="732.21" y="0">ene</tspan><tspan class="cls-8" x="1099.03" y="0">w</tspan><tspan x="1271.48" y="0">ables</tspan></text><path class="cls-9" d="M1096.38,1171.74c-8.22,10.41-24.87,18.84-37.15,18.84H802.79c-12.29,0-15.59-8.44-7.36-18.84L967.17,954.62c8.24-10.41,24.88-18.84,37.17-18.84h256.44c12.29,0,15.59,8.43,7.35,18.84Z"/><path class="cls-9" d="M1397.32,1171.74c-8.23,10.41-24.86,18.84-37.15,18.84H1103.73c-12.29,0-15.58-8.44-7.36-18.84l171.75-217.11c8.24-10.41,24.88-18.84,37.16-18.84h256.46c12.27,0,15.58,8.43,7.35,18.84Z"/><path class="cls-9" d="M1698.27,1171.74c-8.25,10.41-24.87,18.84-37.16,18.84H1404.67c-12.29,0-15.58-8.44-7.36-18.84l171.77-217.11c8.23-10.41,24.86-18.84,37.15-18.84h256.44c12.29,0,15.58,8.43,7.37,18.84Z"/><path class="cls-9" d="M1999.2,1171.74c-8.22,10.41-24.85,18.84-37.16,18.84H1705.6c-12.3,0-15.58-8.44-7.34-18.84L1870,954.62c8.21-10.41,24.84-18.84,37.13-18.84h256.44c12.31,0,15.58,8.43,7.37,18.84Z"/><path class="cls-9" d="M894.81,1426.54c-8.22,10.4-24.88,18.84-37.16,18.84H601.21c-12.3,0-15.58-8.44-7.36-18.84l171.76-217.11c8.23-10.41,24.88-18.84,37.17-18.84h256.44c12.29,0,15.58,8.43,7.35,18.84Z"/><path class="cls-9" d="M1195.75,1426.54c-8.23,10.4-24.87,18.84-37.16,18.84H902.15c-12.28,0-15.57-8.44-7.34-18.84l171.76-217.11c8.23-10.41,24.87-18.84,37.16-18.84h256.43c12.29,0,15.58,8.43,7.35,18.84Z"/><path class="cls-9" d="M1496.7,1426.54c-8.25,10.4-24.87,18.84-37.17,18.84H1203.1c-12.3,0-15.58-8.44-7.35-18.84l171.75-217.11c8.23-10.41,24.87-18.84,37.16-18.84h256.44c12.29,0,15.55,8.43,7.34,18.84Z"/><path class="cls-9" d="M1797.65,1426.54c-8.24,10.4-24.87,18.84-37.16,18.84H1504.05c-12.29,0-15.6-8.44-7.35-18.84l171.75-217.11c8.21-10.41,24.86-18.84,37.16-18.84H1962c12.31,0,15.57,8.43,7.36,18.84Z"/><path class="cls-9" d="M693.24,1681.34c-8.23,10.4-24.87,18.83-37.16,18.83H399.65c-12.29,0-15.58-8.44-7.35-18.83L564,1464.22c8.23-10.4,24.86-18.84,37.16-18.84H857.64c12.29,0,15.58,8.43,7.36,18.84Z"/><path class="cls-9" d="M994.19,1681.34c-8.23,10.4-24.87,18.83-37.16,18.83H700.6c-12.29,0-15.58-8.44-7.35-18.83L865,1464.22c8.22-10.4,24.86-18.84,37.15-18.84h256.43c12.3,0,15.59,8.43,7.37,18.84Z"/><path class="cls-9" d="M1295.13,1681.34c-8.23,10.4-24.86,18.83-37.15,18.83H1001.54c-12.29,0-15.58-8.44-7.35-18.83l171.75-217.12c8.22-10.4,24.85-18.84,37.15-18.84h256.43c12.3,0,15.57,8.43,7.36,18.84Z"/><path class="cls-9" d="M1596.08,1681.34c-8.23,10.4-24.86,18.83-37.17,18.83H1302.49c-12.29,0-15.59-8.44-7.36-18.83l171.75-217.12c8.22-10.4,24.87-18.84,37.15-18.84H1760.5c12.29,0,15.56,8.43,7.34,18.84Z"/><polyline class="cls-2" points="2075.23 1234.8 2339.47 1444.46 1772.36 1615.2 2075.23 1232.99"/><polygon class="cls-2" points="2524.05 1424.1 2719.16 1358.72 2219.43 964.73 2115.18 1096.29 2524.05 1424.1"/><rect class="cls-10" width="3004.72" height="3004.72"/></svg>